<svg xmlns="http://www.w3.org/2000/svg" width="385.333" height="125.214" viewBox="0 0 385.333 125.214"><defs><style>.a{fill:rgba(221,221,223,0.36);}.b{fill:#dd2b39;}.c{fill:#ffc600;}.d{fill:#6564a0;}.e{fill:#589f36;}.f{fill:#5da137;}.g{fill:#62a331;}.h{fill:#259dd6;}.i{fill:#5c5e5f;}</style></defs><g transform="translate(-122.081 -186.638)"><path class="a" d="M412.6,186.638s-8.292,0-8.292,8.292V303.56s0,8.292,8.292,8.292h72.746s8.289,0,8.289-8.292V194.93s0-8.292-8.289-8.292Z" transform="translate(13.781)"/><path class="b" d="M452.32,228.422c.044.16.081.32.123.482.467.086.793.461,1.21.242v.123c.379.355.022.573.24.966.081.044.165.082.243.124v.117l.122-.117c.121.039.243.081.362.117a15.477,15.477,0,0,0-.241,2.789h.241c-.037.361-.08.726-.119,1.088h-.123c-.012.062.2.335.123.605h-.123v.847h-.121v.365h-.122v.967c-.079.043-.163.081-.243.122-.039.122-.081.242-.118.364h-.123c-.18.5.726.7.123.968-.144.537-.457.43-.606.969a5.333,5.333,0,0,0-1.21.241c-.041.122-.082.242-.121.365h-.851v.363l-.845.121v-.243a1.259,1.259,0,0,1-.486.123v.363a4.48,4.48,0,0,1-.848-.363v-.123l-1.09.243v-.364h.121v-.12h.241c.122-.164.245-.324.365-.485h.363v-.122h.244v-.123h.237c.042-.079.082-.158.124-.24h.242v-.122a1.328,1.328,0,0,1,.606-.363v-.241h.243c.161-.243.323-.487.481-.728.081-.038.16-.082.243-.121v-.242c.082-.04.161-.082.241-.122.039-.122.081-.242.123-.362h.121c.08-.243.162-.486.243-.727.1-.193.5-.68.361-1.09H452.2v-.243c-.081-.04-.164-.079-.24-.122-.041-.4-.082-.807-.121-1.208h.238v-.123c-.531-.25-.311-.2-.6-.605-.12-.08-.241-.164-.363-.243v-.362h-.122c-.079-.121-.158-.243-.242-.364h-.239v-.122h-.243c-.087-.065-.1-.248-.243-.363a2.082,2.082,0,0,0,0-.85c-.12.043-.24.082-.363.123v-.123c-.21-.133-.163-.074-.242-.362-.124-.038-.242-.08-.361-.12v.12c-.139.138-.05,0-.124.244-.867,0-1.227.23-2.178.24v-.364a1.463,1.463,0,0,0-.606.124v-.244c.371-.2.484-.365.484-.968h-.123v.243c-.692-.027-.969-.22-1.09.121.139.1.018-.016.123.122h-.846v-.122c-.084-.04-.162-.081-.242-.121v.242h-.483c-.042.121-.081.24-.124.363-.2-.04-.4-.081-.6-.123v.123h.121v.364c-.121-.042-.243-.08-.366-.124v.124a6.016,6.016,0,0,0-1.21,2.177v1.09h.124v-.119a2.1,2.1,0,0,0,.363-1.091h.24a15.017,15.017,0,0,0,.12,2.541c-.334-.086-.271-.034-.36-.362h-.363v-.726h-.124v.121h-.12v.484h.12v.484h.124v.123c.12-.041.24-.083.363-.123v.123c.135.136.047,0,.117.241-.117-.042-.24-.081-.361-.122v.243c.2.2.237.559.361.847h.123c.093.271-.1.328-.123.484h.123q.124.363.243.727H443v.242c.5.137.466.366.726.728.283.241.57.483.851.726v.121h.242c-.04.12-.081.242-.121.364a3.275,3.275,0,0,1-2.665-1.7l-.363-.241V237.5l-.243-.242v-.242H441.3v-.242l-.363-.241a8.162,8.162,0,0,1-.486-3.631h.12v-.971h.122v-.605c.081-.041.161-.081.244-.121v-.97l.481-.121a1.675,1.675,0,0,1,.487-.845c.078-.042.158-.082.24-.123.094-.213-.082-.185-.121-.242.039-.163.081-.322.121-.482a2.438,2.438,0,0,1,.483.12v-.12h.242v-.243h.244c.148-.361.165-.528.484-.727h.242c.043-.122.082-.243.124-.362.12.04.24.081.361.118.039-.079.082-.16.123-.24h.606v-.121h.36v-.125h1.574v-.12c.284.042.566.081.848.12v.125h.727v.121h.487v.122h.361v.118h.242v.122h.363v.122c.243.04.487.08.726.121v.122c.242.082.486.164.727.242.039.08.081.162.123.242h.364v.12c.117.042.24.083.361.124" transform="translate(15.543 1.951)"/><path class="b" d="M450.513,233.3v.365l-.361-.121v-.123h.117c.141-.136,0-.049.243-.122" transform="translate(16.019 2.278)"/><path class="b" d="M450.86,233.762V234c-.288-.072-.226-.037-.365-.241Z" transform="translate(16.036 2.301)"/><path class="b" d="M442.759,234.224c.337.088.274.034.367.363h.121v.122h-.121v.12h-.367Z" transform="translate(15.658 2.324)"/><path class="b" d="M447.522,239.326h-.6v-.364h.122v-.122h.361c.1.136-.017.019.121.122Z" transform="translate(15.861 2.549)"/><path class="c" d="M446.93,226.115c.087.355.136.4.489.486v.365c-.729.038-1.455.08-2.182.12-.179.056-.975.433-1.209.363v-.122h-.246v-.118c-.2-.043-.4-.082-.6-.123-.043-.082-.08-.162-.122-.245h-.24v-.119h-.244c-.082-.121-.16-.24-.24-.364h-.243c-.042-.08-.08-.16-.119-.242h-.243c-.041-.081-.08-.16-.123-.24h-.363v-.124h-.726v-.119h-.122v.119h-.123c-.24.027-.4.038-.48-.119h-.126c-.093.068.055.5-.36.362v-.12h-.123v-.485a.677.677,0,0,0,.245-.486h.237v-.242c.28-.038.313-.018.487-.121v-.121h.483V224.3h.243v-.12h2.3v.12h.243v.121h.482c.043.081.082.162.124.241h.483c.041.082.081.164.122.242h.361c.042.081.081.164.124.242h.36c.044.08.082.163.123.243h.24c.043.082.084.159.124.242h.242c.042.081.081.163.123.242h.238v.12l.363.121" transform="translate(15.484 1.833)"/><path class="c" d="M454.739,235.919h.241v.482c-.3.187-.072.139-.241.363-.081.043-.163.082-.242.123-.161.2-.319.4-.485.606h-.12v.241h-.243c-.041.121-.081.241-.121.364h-.362c-.07-.263-.429-.543-.244-.969h.122q.063-.181.123-.365l.242-.12v-.969h.12v-.364h.121v-.485h.121c.05-.159.05-.491-.121-.483v-.121h.243v.121c.3.272.172.538.364.851.08.038.158.079.24.117v.243h.123c.039.121.079.242.12.364" transform="translate(16.152 2.323)"/><path class="c" d="M443.916,237.11c.241.039.485.083.727.121.092.389.182.262.243.728h.36c.1.415.253.309.363.726h.489c.1.136-.017.018.119.121.038.2.08.4.12.605.163-.039.325-.081.486-.122v.365h.366v.24h.6v.364h.12a4.308,4.308,0,0,0,2.06,1.211v.363c-.466.277-.55.76-1.212.847v-.363h-.121c-.189-.219-.24-.1-.482-.243v-.121h-.244c-.161-.2-.323-.4-.483-.605l-.486-.123c-.081-.158-.16-.321-.243-.481h-.24c-.041-.082-.08-.163-.123-.244-.2-.162-.4-.321-.6-.482-.374-.39-.35-.921-.97-1.092-.04-.24-.081-.481-.12-.725l-.363-.122c-.033-.657-.229-.477-.364-.968" transform="translate(15.715 2.464)"/><path class="c" d="M455.444,238.726h.363v2.542h-.123c-.039.2-.081.4-.117.605h-.123c-.041.122-.081.24-.124.365h-.24a2.694,2.694,0,0,1-2.178,1.452v.124h-.124v-.124h-1.934c.04-.2.08-.4.12-.605.332-.078.277-.158.6-.242V242.6h.243a5.544,5.544,0,0,1,.967-.847v-.12h.606c.138-.139,0-.049.243-.122-.041-.243-.079-.486-.119-.728a2.026,2.026,0,0,0,1.21-1.332h.241c.175-.3.382-.336.485-.726" transform="translate(16.053 2.543)"/><path class="d" d="M472.127,234.107c.078.342.273.667.363.97a13.512,13.512,0,0,1-.122,3.388c-.077.728-.159,1.455-.241,2.181h-.121v.486h-.123v.485h-.117v.484h-.123v.364h-.123v.363H471.4v.364h-.124q-.063.3-.117.605h-.122v.243h-.124v.361H470.8c-.08.244-.16.485-.242.727h-.119v.242h-.124v.364l-.243.121v.242h-.12v.241h-.123v.243l-.24.24v.244c-.08.039-.161.079-.241.121v.242c-.083.039-.161.08-.245.12v.241c-.079.042-.162.083-.24.122v.366l-.242.12v.242c-.32.282-.646.565-.968.847v.241c-.081.043-.161.081-.242.121v.244c-.084.04-.166.081-.243.121v.24h-.12v.244l-.485.243v.239c-.121.083-.242.165-.363.243v.241c-.445.406-.888.807-1.333,1.211v.242c-.079.04-.159.082-.24.122v.121c-.164.039-.325.082-.483.122-.084.118-.162.241-.243.364h-.242c-.081.121-.163.241-.241.362h-.245c-.4.446-.807.889-1.207,1.331l-.6.122c-.167.2-.326.407-.489.608h-.24l-.243.24h-.24v.121H459.9v.122h-.243v.122h-.24c-.084.121-.165.24-.245.363h-.241l-.243.24h-.24v.123H458.2c-.037.082-.08.161-.121.239h-.24v.125c-.159.041-.326.081-.484.12v.119c-.242.043-.486.085-.726.123v.123h-.243v.121h-.363v.121h-.363v.122H455.3v.123h-.486v.118h-.245v.123h-.481c-.042.079-.083.161-.123.241h-.486v.122c-.4.04-.8.082-1.21.121v.243c-1.348-.05-2.219-1.415-3.391-1.7v-.363h.728v-.12h.243v-.12h1.209v-.123h.123v.123h.243v-.24a3.637,3.637,0,0,0,1.449-.245v-.12h.243v-.121h.848c.04-.082.081-.163.123-.243h.364c.039-.08.08-.162.117-.242.245-.039.486-.081.731-.119v-.125h.24v-.121h.24v-.12c.244-.082.487-.162.727-.243v-.122c.244-.039.487-.08.727-.119V255.3c.163-.042.322-.08.486-.123.082-.121.163-.24.241-.362.24-.079.486-.16.726-.241.04-.081.082-.166.123-.245h.243c.079-.12.159-.24.24-.361h.241c.042-.082.083-.162.123-.243.159-.039.322-.081.486-.123.121-.158.24-.32.361-.482h.243c.083-.121.162-.242.241-.362h.244c.082-.121.161-.243.24-.364h.243c.159-.2.324-.4.481-.607h.244c.162-.2.325-.4.485-.605h.24c.042-.119.082-.239.121-.364.162-.119.324-.241.486-.363v-.24c.366-.322.727-.645,1.09-.968V249c.082-.04.159-.08.24-.121v-.121c.126-.079.247-.161.366-.242v-.24c.12-.081.24-.164.363-.242v-.245c.082-.039.166-.08.241-.119.042-.123.079-.242.123-.364h.121v-.241c.081-.042.163-.081.242-.122V246.7c.082-.042.163-.081.241-.122v-.243c.08-.039.162-.081.243-.123v-.24c.083-.041.162-.08.24-.121.081-.244.164-.485.243-.727h.122c.04-.12.082-.242.123-.363.079-.042.159-.081.24-.12.042-.163.08-.326.122-.486.08-.042.162-.081.239-.12v-.487h.124v-.362h.121v-.243h.124c.04-.242.079-.483.119-.727h.117c.044-.161.083-.324.123-.483h.124v-.243h.122v-.242h.121v-.242h.121c.081-.241.162-.482.24-.726h.123c.043-.243.082-.483.12-.726h.121c.082-.242.165-.487.246-.727h.119v-.241h.121v-.364h.122v-.243h.122V237.5h.124v-.243h.122v-.726h.117v-.242h.124v-.849s.074-.014.117-.239c.334-.088.275-.037.363-.367-.5-.36-.017-.18-.117-.6l-.123-.122Z" transform="translate(15.957 2.318)"/><path class="d" d="M422.691,234.8c.388.091.443.164.481.605h-.116c.037.243.078.487.116.728h-.238c.041.2.082.4.122.6h.116v.969h.124v1.331h.122v.244l.36.12a3.279,3.279,0,0,0,0,1.455c.427.094.477.216.489.726H423.9c.04.161.081.323.122.483h.361a.958.958,0,0,0,.244.727h.121c.039.162.079.325.12.485h.123V244h.124v.239c.079.041.16.082.237.123v.244h.123v.481c.121.082.243.164.366.243v.485h.117v.241l.244.12v.244c.161.121.321.242.486.361q.058.305.12.608c.122.038.24.08.362.12.162.15.1.423.122.729.568.149.4.432,1.211.481.081.4.164.809.24,1.212.306.074.2.064.365.242h.121v.24h.125a.93.93,0,0,1,.238.488h.363v.12h.123v.363l.727.241v.363h.121v.121c.2.039.4.083.606.125l.24.362h.245l.238.241v.242c.1.125.366.215.487.364h.481v.24h.363v.244c.415.1.315.25.727.361v.245h.365c.082.165.186.153.241.24.257.368.1.46.726.485v.122h.366c-.04.12-.08.241-.121.363l.6-.122v.122h.244c.043.08.081.161.118.24h.364v.122h.245v.125h.6c.044.08.082.158.127.24l.6.121c.041.08.081.162.117.243.324.039.648.078.971.12.039.082.079.159.12.243a.3.3,0,0,0,.362-.124c.327.04.646.081.972.124v-.124h.726v.124h.241v.123h.727v.117h.363v.123h.484c.041.082.079.162.123.239h2.661c.2.244.408.486.607.728h.243l.122.243h.24c.081.123.163.24.244.364h.243c.037.079.078.162.119.241.364.2.728.4,1.09.606v.362H448a5.881,5.881,0,0,1-1.209.243v-.125h-1.452v-.118h-.97v-.116h-.486V260.1h-.366v-.117h-.48v-.122c-.562-.041-1.13-.083-1.694-.123v-.12h-.245V259.5L440,259.38v-.121h-.36v-.121h-.365c-.042-.08-.081-.162-.125-.241h-.606v-.123c-.2-.043-.4-.079-.6-.123v-.121l-.483-.121v-.122H437.1v-.124c-.246-.077-.484-.157-.727-.237V257.8h-.243v-.12h-.366c-.037-.078-.079-.163-.12-.242-.157-.039-.321-.081-.482-.117-.2-.247-.4-.486-.607-.729-.439-.248-.4.311-.6-.361-.27-.039-.321-.014-.487-.125v-.122h-.242c-.038-.08-.077-.16-.117-.24-.168-.04-.326-.081-.489-.122-.117-.161-.24-.324-.363-.485h-.238c-.042-.08-.083-.161-.124-.24h-.243c-.079-.123-.158-.245-.241-.363-.2-.166-.4-.325-.6-.486q-.063-.121-.123-.242h-.243c-.2-.244-.4-.485-.6-.727h-.243l-.484-.605c-.08-.042-.164-.081-.243-.122v-.243c-.122-.078-.239-.161-.362-.242v-.241c-.325-.241-.646-.485-.968-.724-.041-.162-.082-.323-.123-.488-.08-.038-.162-.08-.242-.119v-.243c-.082-.04-.159-.08-.24-.121v-.244c-.082-.037-.163-.079-.241-.12v-.243c-.086-.04-.165-.081-.246-.119v-.365l-.239-.122v-.241l-.362-.24c-.043-.2-.082-.406-.123-.607l-.243-.122c-.041-.12-.082-.241-.123-.363h-.118c-.08-.241-.163-.483-.242-.726-.082-.041-.164-.082-.242-.123v-.241h-.121v-.486h-.122c-.04-.157-.079-.32-.123-.483h-.119v-.241h-.122v-.24h-.121v-.244H423.9v-.241h-.125v-.243h-.12v-.726h-.115c-.045-.163-.084-.323-.125-.486H423.3v-.485h-.124v-.361h-.116v-.488h-.122v-.605h-.123v-.24h-.121V238.8a5.317,5.317,0,0,1-.244-1.7c.045-.283.084-.566.124-.847h-.124v-.362c-.023-.171-.1.048-.119-.122.078-.041.164-.082.242-.122a1.87,1.87,0,0,0,.121-.848" transform="translate(14.661 2.352)"/><path class="e" d="M461.717,221.437c.041.163.082.323.123.485l.237.122c.043.16.085.322.124.482h.12v.364h.124v.24h.117q.121.79.243,1.576h.122a9.134,9.134,0,0,1-.122,2.905v.605h-.123c-.04.323-.077.647-.121.969h-.117v.364h-.124v.364h-.12v.482h-.124c-.041.164-.081.325-.12.483h-.117l-.123.728h-.125v.242h-.119c-.081.242-.159.486-.242.728h-.121v.24a4.507,4.507,0,0,0-.606,1.21h-.245v.244h-.24c-.2,1-1.073,1.64-1.333,2.542h-.24a1.444,1.444,0,0,1-.364.726h-.122c-.266.4-.007.575-.6.726-.1.415-.251.311-.364.728h-.24a1,1,0,0,1-.242.485h-.123v.485a1.379,1.379,0,0,1-.847.6,1.506,1.506,0,0,1-.486.846c-.117.042-.241.082-.362.124v.241l-.242.24h-.241l-.244.244c-.27.364-.179.583-.724.724-.16.579-.443.445-.849.729-.08.122-.163.241-.243.365-.117.038-.238.078-.361.12-.04.12-.082.242-.121.362h-.486c-.081.124-.159.243-.24.363l-.363.122c-.043.082-.084.164-.126.244a2.006,2.006,0,0,1-.841.483v.243h-.367c-.113.217-.168.189-.242.484h-.6v.242a1.36,1.36,0,0,0-.607.364v.121h-.361v.122c-.122.04-.245.081-.366.119v.244h-.486v.241c-.48.055-.429.2-.967.242v.241c-.278.031-.316.017-.481.121v.124h-.365c-.045.079-.084.161-.121.243H444.4c-.039.078-.081.158-.121.24h-.365c-.039.08-.079.163-.123.241h-.48v.121a2.048,2.048,0,0,1-.851.121v.244c-.873,0-1.095.222-1.935.241v-.241c-.412-.093-.557-.259-.607-.727h-.243c-.041-.163-.078-.322-.121-.484h-.239v-.244h-.243c-.04-.16-.081-.323-.123-.483.2-.039.407-.08.605-.121v-.121h1.577c.039-.081.08-.162.119-.244h.363v-.119h.241v-.122h.365v-.121h.24v-.123h.241c.044-.08.083-.159.125-.241h.362c.042-.081.08-.162.123-.242h.361c.042-.082.083-.162.12-.243h.608c.038-.081.082-.16.122-.24h.363v-.123c.12-.04.244-.08.363-.121l.12-.242.73-.121c.078-.12.161-.242.242-.364h.238c.043-.081.083-.16.123-.241h.24v-.12c.179-.124.305-.1.609-.124.131-.479.037-.156.361-.362v-.12h.242c.04-.083.079-.164.121-.243.309-.288.573-.667,1.089-.727v-.243h.248c.038-.121.08-.241.117-.361h.124v-.243l.239.122v-.122h.243c.243-.284.483-.566.726-.85h.243c.081-.121.161-.24.24-.362h.243c.081-.122.161-.241.243-.365h.117v-.24c.081-.042.164-.081.243-.123a3.142,3.142,0,0,0,.849-1.088h.242v-.242h.241v-.242h.24c-.038-.122-.08-.243-.116-.364.079.041.157.08.241.121v-.242h.12a1.7,1.7,0,0,0,.483-.726h.244V237.3h.24v-.363a7.443,7.443,0,0,0,.725-.485v-.242c.083-.041.166-.081.245-.122.038-.162.08-.322.118-.484l.244-.122v-.242l.363-.242q.121-.363.243-.725h.24c.12-.647.48-.773.726-1.211v-.243h.123v-.24l.241-.242v-.243c.08-.04.16-.08.24-.123v-.362l.245-.121v-.242h.118c.042-.159.083-.323.123-.487h.123V230.4h.121v-.242h.123c.079-.24.159-.482.24-.726h.124c-.045-.081-.084-.163-.124-.242h.124c.039-.241.08-.482.117-.726h.123v-.485h.117v-.243h.126c.08-.4.159-.807.242-1.21h.121v-.243h.119v-.725h.121v-.486h.123v-.724h.121a2.1,2.1,0,0,0-.243-1.333v-.605h-.121v-.243h-.119c.039-.241.079-.484.119-.726a.821.821,0,0,1-.608-.485c.141-.1.02.015.126-.123.242.042.482.083.726.123v.122a1.478,1.478,0,0,0,.606.363" transform="translate(15.472 1.67)"/><path class="f" d="M440.1,227.874h.48c-.039.161-.081.323-.12.486h-.243v.363H440.1v.121h-.363c-.044.121-.082.241-.123.364l-.366-.123c-.031.658-.223.477-.363.968-.407.121-.23.147-.485.363v.122h-.24c-.147.577-.546.461-.363,1.09-.12.042-.245.082-.364.123-.041.081-.08.162-.122.242-.369.26-.456.094-.482.726.133.138.046,0,.12.242-.215.028-.245.121-.245.121-.158-.041-.321-.082-.482-.121v.121h-.12c.041.2.082.4.12.605h-.243a5.682,5.682,0,0,1-.241.968c-.215.115-.19.169-.486.243a3.132,3.132,0,0,1-.363.969h-.12v.364l-.364.242v.24h-.119v.243h-.123v.485c-.081.041-.16.079-.242.121a2,2,0,0,0-.123.848h-.361v-.123h-.121v-.363c-.08-.04-.164-.08-.245-.12a1.849,1.849,0,0,1-.24-.969h.12v-.363h.121a3.133,3.133,0,0,0,.366-.968h.24c.149-.716.684-1.1.85-1.819h.361c.074-.752.571-.785.728-1.451h.243c.038-.163.082-.324.119-.486h.243c.044-.163.081-.322.12-.486h.245c.117-.159.243-.322.363-.484h.243l.119-.243h.122v-.24h.119v-.244c.126-.08.245-.158.366-.241v-.24c.363-.2.724-.406,1.09-.607V228.6c.24-.043.483-.082.729-.123v-.12c.135-.138.047,0,.116-.243h.246Z" transform="translate(15.174 2.013)"/><path class="g" d="M431.582,239.535h.239c.08.24.16.484.244.726h.12v.242l.364.241c.04.163.08.323.123.485h.117c.042.323.084.646.123.97a.324.324,0,0,0-.123.362h.123v.364h.12v1.331c.082.043.161.08.244.124.162.482.321.965.483,1.451H434v.485c.151.081.166.191.242.24h.241l.243.366h.363v.121h.364c.041.08.081.16.122.241.088.04.983.1,1.09.122.038.12.08.241.116.365h.245c.039.16.081.321.123.482h.24c.084.413.27.561.366.969H438v.485c-.2-.04-.4-.08-.606-.123v.123h-.481l-.127-.244h-.844c-.043-.079-.082-.158-.122-.24h-.726c-.039-.081-.082-.161-.123-.241h-.361c-.041-.083-.081-.163-.123-.244h-.363c-.039-.08-.081-.16-.121-.241h-.243v-.121c-.179-.164-.164-.062-.24-.362h-.242c-.042-.165-.084-.323-.124-.488a2.133,2.133,0,0,1-1.087-1.453h-.244q-.178-.724-.362-1.452h-.123v-1.212h-.121v-2.178h.121v-.362h.123V240.5h.123v-.485h-.123c.04-.162.081-.322.123-.484" transform="translate(15.095 2.583)"/><path class="h" d="M445.038,208.247v.239c.123.043.243.083.364.123v.121h.24v.122h.244c.079.121.158.242.24.363h.243c.039.081.082.159.119.241h.247c.036.082.078.164.12.244h.242c.037.08.079.162.119.24a1.72,1.72,0,0,0,.852.486v.242a1.952,1.952,0,0,1,.969.606c.039.077.081.16.119.241h.242c.082.121.162.241.241.364h.242c.042.08.082.159.12.241h.248c.118.2.241.4.362.606h.241c.042.08.083.162.122.242h.243c.04.08.077.161.121.24h.117v.242h.124v.242h.12l.121.243h.244c.322.363.646.725.967,1.089.285.2.564.4.847.606.039.161.079.322.12.482.324.283.646.567.97.851v.24q.3.242.607.484c.04.121.08.244.119.365.244.2.486.4.73.605.037.163.078.323.116.485.2.16.406.323.608.485.082.242.16.484.242.725.122.082.24.164.365.244v.606h.24a1.336,1.336,0,0,0,.362.6h.123v.363c.2.163.4.323.605.485.04.162.079.323.118.485.084.039.164.08.245.12v.364c.081.042.163.082.238.122.042.2.083.4.123.606h.123v.241l.607.486v.6h.119c.042.323.082.646.122.966-.2-.038-.4-.08-.6-.119-.043-.242-.082-.486-.123-.728h-.121c-.219-.3-.29-.252-.363-.724.135-.141.047,0,.117-.244-.637-.181-.646-.608-.967-1.089-.082-.04-.163-.08-.24-.122-.04-.163-.082-.324-.123-.484h-.12c-.041-.122-.08-.243-.124-.363-.077-.042-.161-.083-.238-.122-.044-.162-.081-.322-.121-.485-.125-.08-.243-.161-.365-.242-.1-.147-.093-.512-.242-.606-.2-.039-.4-.081-.608-.119-.116-.364-.24-.73-.361-1.092h-.122c-.11-.168-.084-.212-.12-.484-.123-.041-.244-.083-.363-.121v-.124c-.446-.232-.56.128-.728-.484h-.12v-.362h.24v-.124a.563.563,0,0,1-.364-.481H454c-.041-.163-.081-.323-.12-.487a2.523,2.523,0,0,1-1.695-1.694h-.241v-.244H451.7v-.12c-.243-.2-.481-.4-.725-.606v-.24a2.179,2.179,0,0,1-.848-.485v-.242H450c-.078-.122-.158-.24-.237-.364h-.245c-.082-.12-.163-.242-.241-.362h-.24c-.043-.082-.083-.163-.125-.242h-.24l-.6-.727h-.245V212c-.468-.212-.406.28-.606-.363h-.238v-.362c-.242-.083-.489-.162-.729-.243v-.123h-.481c-.365-.121-.729-.24-1.09-.362-.166-.353-.381-.459-.488-.846-.779-.086-1.1-.621-1.695-.848-.329-.128-.588.025-.844-.122-.043-.081-.083-.16-.124-.243h-.848v-.121c-.159-.04-.322-.08-.487-.119v-.123h-.967v-.119h-1.089v-.125h-.364v-.12a3.251,3.251,0,0,0-1.817.244h-1.21a8.449,8.449,0,0,1-2.059.48c-.119.409-.147.234-.362.486H432.2v.242h-.362a5.959,5.959,0,0,1-.97,1.211l-.364.242c-.156.24.028.553-.12.847-.163.121-.324.241-.483.364q-.123.362-.243.725c-.081.041-.162.083-.243.123v.605h-.12v.243h-.12v.362h-.124v.241h-.121v.484h-.122c.042.2.083.4.122.606q-.058,1.757-.122,3.513h-.121v.485h-.123v.724h-.117a2.457,2.457,0,0,0,.24,1.092v1.453h.121v.726h.122v.848h.121v.485h.124c.078.887.159,1.777.239,2.663h.123v.482h.121v.486h.121v.486h.123c.037.4.079.808.117,1.21h.124v.242l.242.122v.6h.12v.486h.123v.24h.121c.04.324.081.647.121.97l.242.12q.12.6.243,1.215h.119v.24h.122v.242h.122v.241h.123c.081.243.161.485.239.726h.123v.606h.122v.242c.08.041.164.08.242.122.039.2.08.4.12.605h.122v.242c.08.04.164.08.24.122v.363c.084.04.164.081.242.121v.485h.122a4.513,4.513,0,0,1,.365.968h.24c.083.243.163.486.244.728h.12v.242h.122c.04.24.081.484.123.726h.12c.042.162.082.322.122.482h.121v.243c.081.041.161.08.24.122v.241l.242.122c.041.16.083.323.121.484l.245.121c.039.2.081.4.12.607l.243.121a1.43,1.43,0,0,1,.243.605h.238a1.6,1.6,0,0,0,.363.729h.126c.081.239.157.481.242.725.121.081.24.159.361.241v.244c.12.078.245.159.364.24.04.161.084.323.122.485.117.083.241.16.364.24.08.244.161.487.241.728h.242c.15.606.576.749.726,1.453h.244v.244h.237c.044.162.084.321.126.482h.24c.072.419.2.626.6.728v.241c.359.083.4.137.487.485h.242c.039.162.079.322.12.484h.243v.243h.243c.039.163.078.322.12.482h.243v.243a1.753,1.753,0,0,1,.846.969h.243v.243h.24v.24h.242v.243h.243v.241h.241v.24h.243c.2.245.4.487.605.727h.24v.122c.082.043.163.081.243.124v.241c.4.1.917.693,1.208.969.044.08.084.16.123.24h.244c.08.121.161.245.242.364h.24v.122a1.028,1.028,0,0,0,.484.243v.241a1.251,1.251,0,0,1,.606.365v.117h.245c.037.08.079.166.117.242.324.083.646.165.97.244.042.081.083.16.122.238h.243c.04.085.077.167.121.245.163.039.322.08.481.121.039.081.082.165.123.242h.241v.124h.242v.117h.243c.041.083.078.162.119.244h.243v.121c.328.207.23-.115.363.361.274.035.321.013.485.124v.121h.243v.119h.242c.042.084.082.166.123.243h.241c.041.08.08.164.12.243h.364c.039.082.082.161.12.244h.363v.118c.163.042.324.08.486.121v.123h.361v.12c.166.044.325.08.487.121v.125h.364v.117h.365v.124h.24v.121h.362v.117h.846a7.17,7.17,0,0,0,2.423.123v-.123c.4.043.811.083,1.212.123.039-.08.081-.16.12-.24a1.6,1.6,0,0,1,.969-.362c.1.137-.018.015.122.117v.362H463.8c-.043.123-.079.244-.123.364-.1.045-.4.081-.483.122-.037.08-.08.163-.117.245h-.367c-.041.079-.081.158-.12.24h-.364v.122h-.242v.119H461.5v.123h-.363v.122h-.967v.12a7.752,7.752,0,0,1-2.546-.12h-.967v-.122h-.485v-.123h-.728v-.119h-.24v-.122h-.484V264.3h-.364v-.117h-.486v-.125h-.24v-.121h-.486v-.122a1.184,1.184,0,0,0-.6-.12v-.244a1.06,1.06,0,0,1-.606-.117v-.121h-.363c-.04-.082-.079-.162-.124-.241h-.364c-.038-.083-.078-.166-.117-.245h-.244c-.038-.08-.082-.163-.118-.242h-.362c-.043-.079-.083-.16-.124-.239h-.243c-.039-.083-.081-.163-.117-.244-.366-.125-.727-.243-1.092-.36-.042-.084-.084-.167-.122-.245h-.242v-.121l-.362-.124v-.24h-.367c-.421-.692-1.7-.927-1.811-1.818-.577-.15-.511-.565-1.09-.725v-.241c-.357-.086-.4-.137-.488-.484h-.24c-.043-.083-.08-.166-.122-.245-.123-.08-.245-.16-.363-.24v-.244c-.125-.079-.243-.159-.366-.24-.255-.362-.224-.59-.724-.726v-.245h-.243v-.24c-.241-.16-.481-.325-.726-.487-.279-.367-.178-.575-.727-.725v-.24h-.24c-.108-.417-.25-.314-.363-.729h-.244c-.041-.16-.081-.323-.122-.484h-.24v-.243h-.244c-.209-.8-1-1.024-1.207-1.935h-.245c.04-.083.084-.163.12-.244h-.24c-.041-.159-.08-.32-.12-.484h-.243c-.113-.439-.371-.49-.484-.968h-.244a2.245,2.245,0,0,0-.725-1.089c-.081-.042-.163-.082-.245-.123a3.3,3.3,0,0,1-.481-1.21h-.242a1.461,1.461,0,0,0-.364-.727h-.122v-.241l-.243-.243v-.242c-.079-.041-.157-.079-.238-.12v-.243c-.085-.041-.163-.079-.243-.12v-.364h-.121c-.042-.122-.084-.241-.124-.363l-.24-.124-.486-1.331c-.081-.038-.16-.081-.242-.12v-.243l-.241-.12v-.243l-.24-.12v-.364c-.084.039-.164.08-.244.121v-.485H431.6v-.242h-.122v-.362h-.119c-.041-.161-.083-.325-.123-.485h-.121c-.041-.163-.081-.325-.122-.486h-.121c-.04-.16-.081-.321-.121-.485h-.121V238.4h-.123v-.364h-.12c-.042-.163-.084-.323-.123-.484h-.12q-.123-.546-.241-1.09l-.364-.243v-.363h-.123v-.242h-.12c-.082-.363-.162-.726-.243-1.089h-.121v-.242h-.122v-.362h-.121v-.244h-.123v-.485h-.117v-.605h-.123v-.242l-.243-.122c.04-.122.083-.241.12-.363-.08-.038-.163-.082-.237-.12-.083-.444-.163-.888-.245-1.333H427.6c-.039-.163-.08-.323-.12-.485h-.121v-.607h-.123v-.6h-.121v-.364H427c-.042-.4-.081-.808-.121-1.209h-.12v-.488h-.122v-.6h-.12v-.485h-.125v-.481h-.121v-.366h-.121v-1.572h-.12c-.042-.929-.079-1.856-.123-2.787h.123v-1.209h.12c-.039-.243-.081-.485-.12-.729h.12v-1.088c.082-.768.166-1.533.241-2.3h.125v-.483h.12v-.485h.122v-.482c.081-.043.159-.082.24-.124.04-.321.081-.645.122-.968h.121c.082-.242.165-.485.243-.727h.12v-.241h.122v-.241h.123c.04-.162.081-.323.123-.487.074-.04.157-.081.237-.12.042-.163.081-.324.124-.487.081-.038.164-.08.24-.12v-.241c.08-.041.164-.082.243-.121v-.244c.2-.16.4-.323.605-.484v-.242h.123l.121-.243h.243c.144-.535.424-.489.846-.725v-.121h.241v-.122h.242V207.4h.241v-.121h.243c.041-.08.081-.164.123-.243.122-.04.239-.081.362-.122v-.121c.241-.041.484-.081.729-.12v-.123h.24v-.121c.28-.042.565-.08.845-.123v-.12c.284-.042.566-.081.85-.121v-.122h1.452v-.121l2.18.242v.121h1.088v.12h.489v.123h.48v.121h.608v.123h.362v.12h.243v.121l.725.122c.04.08.082.164.124.243.158.04.324.079.48.121.04.08.082.159.123.242h.243v.121h.363v.12h.243v.125h.606c.037.08.075.157.12.241Z" transform="translate(14.835 0.937)"/><path class="i" d="M455.929,277.526s1.355,4.739-4.143,5.536c0,0,6.629,1.584,6.629-5.637" transform="translate(16.099 4.433)"/><path class="i" d="M456.811,276.475a1.486,1.486,0,1,1-1.484-1.487,1.487,1.487,0,0,1,1.484,1.487m1.58,1.281v-3.076a1.244,1.244,0,0,0-1.267-1.272H453.53a1.243,1.243,0,0,0-1.268,1.272v3.587a1.244,1.244,0,0,0,1.268,1.271h3.593A2.473,2.473,0,0,1,458.2,278.2l.143-.19Z" transform="translate(16.122 4.237)"/><path class="i" d="M444.849,276.524a1.36,1.36,0,0,1-1.38,1.44,1.488,1.488,0,1,1,0-2.977,1.441,1.441,0,0,1,1.38,1.536m1.685,1.746v-3.59A2.479,2.479,0,0,1,445.2,273.6l-.189-.144-.253-.045h-3.082a1.242,1.242,0,0,0-1.267,1.271v3.59a1.244,1.244,0,0,0,1.267,1.271h3.591a1.246,1.246,0,0,0,1.272-1.271" transform="translate(15.543 4.237)"/><path class="i" d="M464.311,276.382a1.488,1.488,0,1,1-1.487-1.487,1.488,1.488,0,0,1,1.487,1.487m1.578,1.794v-3.592a1.242,1.242,0,0,0-1.27-1.267h-3.591a1.242,1.242,0,0,0-1.269,1.267v3.592a1.243,1.243,0,0,0,1.269,1.269h3.591a1.244,1.244,0,0,0,1.27-1.269" transform="translate(16.488 4.232)"/><rect class="i" width="4.506" height="1.963" transform="translate(473.71 281.673)"/><rect class="i" width="1.595" height="4.507" transform="translate(452.591 279.195)"/><rect class="i" width="13.106" height="1.595" transform="translate(446.951 282.179)"/><path class="i" d="M433,276.476a1.488,1.488,0,1,1-1.487-1.487A1.49,1.49,0,0,1,433,276.476m1.579,1.79V274.68a1.245,1.245,0,0,0-1.27-1.272h-3.593a1.244,1.244,0,0,0-1.269,1.272v3.586a1.244,1.244,0,0,0,1.269,1.271h3.593a1.244,1.244,0,0,0,1.27-1.271" transform="translate(14.959 4.237)"/><rect class="i" width="1.08" height="1.082" transform="translate(451.584 284.434)"/><rect class="i" width="1.325" height="1.326" transform="translate(444.818 275.564)"/><rect class="i" width="1.324" height="1.326" transform="translate(446.798 275.564)"/><rect class="i" width="12.537" height="1.595" transform="translate(453.256 282.179)"/><path class="i" d="M449.969,279.537h.173c.2-1.545.281-6.128-5.723-6.128l.1,2.487a4.26,4.26,0,0,1,5.449,3.642" transform="translate(15.739 4.237)"/><path class="i" d="M126.411,258.638l-.045-.114-2.682-3.473,2.682-3.278.038-.1c0-.06-.038-.1-.128-.1h-.64a.21.21,0,0,0-.179.084l-2.565,3.214v-3.115a.176.176,0,0,0-.168-.182h-.474a.175.175,0,0,0-.168.182v6.787a.181.181,0,0,0,.159.194h.49a.18.18,0,0,0,.16-.194v-3.21l2.511,3.307a.241.241,0,0,0,.2.1h.691c.081,0,.117-.049.117-.1m1.889-6.247v-.774a.186.186,0,0,0-.179-.189h-.452a.186.186,0,0,0-.18.189v.774a.187.187,0,0,0,.18.191h.452a.187.187,0,0,0,.179-.191m-.017,6.15v-4.917a.185.185,0,0,0-.179-.191h-.429a.184.184,0,0,0-.177.191v4.917a.188.188,0,0,0,.177.194h.429a.189.189,0,0,0,.179-.194m5.068,0v-3.171c0-1.285-.479-2-1.548-2a2.515,2.515,0,0,0-1.418.443v-.186a.179.179,0,0,0-.171-.191h-.445a.178.178,0,0,0-.168.191v4.917a.189.189,0,0,0,.168.194h.438a.194.194,0,0,0,.177-.194v-4.069a2.687,2.687,0,0,1,1.2-.377c.68,0,.981.3.981,1.275v3.171a.19.19,0,0,0,.179.194h.427a.188.188,0,0,0,.177-.194m5.268-4.644v-.253a.213.213,0,0,0-.207-.211h-1.947c-1.537,0-1.982.845-1.982,1.7v.077a1.479,1.479,0,0,0,.41,1.119.815.815,0,0,0-.366.7v.009a.8.8,0,0,0,.409.752l.062.03a1.609,1.609,0,0,0-.56,1.225v.084c0,.946.642,1.532,2.053,1.532,1.461,0,2.029-.567,2.029-1.491v-.078c0-.907-.838-1.177-1.711-1.416l-1.328-.368c-.207-.059-.278-.144-.278-.308a.352.352,0,0,1,.227-.329,2.358,2.358,0,0,0,1.035.194c1.368,0,1.974-.587,1.974-1.651v-.077a1.411,1.411,0,0,0-.3-.989l.319-.068c.1-.02.16-.061.16-.182m-.951,1.316c0,.579-.242.985-1.2.985-1.028,0-1.206-.558-1.206-.985v-.077c0-.539.2-1.029,1.206-1.029.96,0,1.2.453,1.2,1.029Zm.072,3.956c0,.531-.234.837-1.249.837-.99,0-1.287-.336-1.287-.878v-.084a1.2,1.2,0,0,1,.437-.986l1.007.281c.8.221,1.092.375,1.092.752Zm8.784-.587-.012-.07-1.648-6.285a.873.873,0,0,0-.9-.723.884.884,0,0,0-.907.732l-1.652,6.275-.007.07a.149.149,0,0,0,.15.153h.525a.188.188,0,0,0,.163-.146l.571-2.217h2.308l.577,2.217a.172.172,0,0,0,.152.146h.525a.145.145,0,0,0,.153-.153m-1.577-2.97h-1.971l.812-3.175c.025-.1.082-.172.178-.172s.141.068.169.172Zm6.209.809v-.693c0-1.511-.648-2.36-1.939-2.36a6,6,0,0,0-1.045.094v-1.793a.178.178,0,0,0-.168-.185h-.457a.17.17,0,0,0-.158.185v6.747c0,.136.027.2.184.222a8.009,8.009,0,0,0,1.645.166c1.334,0,1.939-.938,1.939-2.383m-.782,0c0,1.051-.279,1.638-1.157,1.638-.305,0-.742-.027-1.045-.057v-3.827a6.469,6.469,0,0,1,1.045-.067c.87,0,1.157.585,1.157,1.619Zm5.446,1.995v-6.747a.172.172,0,0,0-.163-.185H155.2a.178.178,0,0,0-.167.185v1.793a6.16,6.16,0,0,0-1.043-.094c-1.3,0-1.941.848-1.941,2.36v.693c0,1.445.614,2.383,1.941,2.383a7.919,7.919,0,0,0,1.64-.166c.157-.027.187-.1.187-.222m-.785-.413c-.3.029-.74.057-1.043.057-.884,0-1.158-.587-1.158-1.638v-.693c0-1.034.285-1.619,1.158-1.619a6.413,6.413,0,0,1,1.043.067Zm5.745.539v-4.917a.183.183,0,0,0-.167-.191h-.436a.192.192,0,0,0-.179.191v4.067a2.644,2.644,0,0,1-1.2.377c-.675,0-.976-.3-.976-1.272v-3.172a.188.188,0,0,0-.181-.191h-.427a.185.185,0,0,0-.178.191V256.8c0,1.283.481,2.007,1.55,2.007a2.54,2.54,0,0,0,1.417-.446v.184a.183.183,0,0,0,.171.194h.445a.18.18,0,0,0,.167-.194m2.087,0v-6.873a.171.171,0,0,0-.159-.185h-.465a.171.171,0,0,0-.162.185v6.873a.182.182,0,0,0,.162.194h.465a.18.18,0,0,0,.159-.194m4.716,0v-3.364c0-1.139-.5-1.81-1.738-1.81a7.212,7.212,0,0,0-1.383.121c-.124.02-.187.08-.187.185v.338c0,.126.082.153.16.153h.046a12.43,12.43,0,0,1,1.363-.078c.692,0,.951.281.951,1.092v.384h-.658c-1.587,0-2.15.523-2.15,1.563v.118c0,1.2.7,1.561,1.454,1.561a2.535,2.535,0,0,0,1.371-.475v.213a.191.191,0,0,0,.181.194h.407a.191.191,0,0,0,.181-.194m-.787-.82a2.29,2.29,0,0,1-1.2.385c-.518,0-.819-.18-.819-.877v-.112c0-.688.283-.945,1.362-.945h.658Zm5.24.82v-.33a.182.182,0,0,0-.177-.189h-2.351l-.072-.077.045-.109,2.342-3.17a.8.8,0,0,0,.2-.531V253.9c0-.289-.134-.47-.5-.47h-2.622a.187.187,0,0,0-.178.191v.328a.189.189,0,0,0,.178.2h2.167c.068,0,.089.027.089.068l-.035.084-2.3,3.1a.937.937,0,0,0-.2.627v.182a.5.5,0,0,0,.541.531h2.692a.188.188,0,0,0,.177-.194m1.954-6.15v-.774a.184.184,0,0,0-.177-.189h-.456a.185.185,0,0,0-.179.189v.774a.186.186,0,0,0,.179.191h.456a.186.186,0,0,0,.177-.191m-.02,6.15v-4.917a.184.184,0,0,0-.177-.191h-.427a.187.187,0,0,0-.18.191v4.917a.19.19,0,0,0,.18.194h.427a.188.188,0,0,0,.177-.194m4.566,0v-.33a.185.185,0,0,0-.181-.189H176l-.071-.077.042-.109,2.347-3.17a.807.807,0,0,0,.2-.531V253.9c0-.289-.135-.47-.5-.47h-2.616a.188.188,0,0,0-.181.191v.328a.191.191,0,0,0,.181.2h2.164c.073,0,.09.027.09.068l-.035.084-2.3,3.1a.93.93,0,0,0-.2.627v.182a.5.5,0,0,0,.541.531h2.691a.191.191,0,0,0,.181-.194m8.357.088-.044-.106-.793-.916a4.209,4.209,0,0,0,.562-2.217v-.136a.137.137,0,0,0-.154-.154h-.382c-.1,0-.144.049-.144.154v.136a3.714,3.714,0,0,1-.349,1.694l-1.611-1.878.249-.182c1.124-.82,1.362-1.265,1.362-1.911v-.076c0-1.023-.781-1.532-1.771-1.532-1.151,0-1.872.51-1.872,1.532v.076c0,.425.09.831.927,1.872l.063.077c-.9.617-1.284,1.1-1.284,1.9v.078c0,1.312,1.1,1.766,2.185,1.766a2.5,2.5,0,0,0,1.753-.658l.448.52a.16.16,0,0,0,.142.069h.616a.106.106,0,0,0,.1-.106m-2.041-5.517c0,.532-.162.774-1.029,1.35l-.3.2-.087-.106c-.715-.849-.759-1.11-.759-1.448v-.076c0-.666.465-.887,1.142-.887.615,0,1.034.252,1.034.887Zm.313,4.532a1.877,1.877,0,0,1-1.328.491c-.723,0-1.365-.316-1.365-1.1v-.078c0-.587.2-.887.918-1.368Zm8.617.9v-3.171c0-1.418-.66-2-1.6-2a3.467,3.467,0,0,0-1.362.3v-1.988a.182.182,0,0,0-.169-.193H190.2a.182.182,0,0,0-.172.193v6.865a.191.191,0,0,0,.172.194h.437a.2.2,0,0,0,.178-.194v-4.164a3.208,3.208,0,0,1,1.23-.27c.577,0,.951.3.951,1.263v3.171a.188.188,0,0,0,.178.194h.426a.191.191,0,0,0,.181-.194m2.112-6.15v-.774a.184.184,0,0,0-.178-.189h-.455a.182.182,0,0,0-.177.189v.774a.184.184,0,0,0,.177.191h.455a.185.185,0,0,0,.178-.191m-.019,6.15v-4.917a.187.187,0,0,0-.18-.191h-.426a.188.188,0,0,0-.18.191v4.917a.192.192,0,0,0,.18.194h.426a.19.19,0,0,0,.18-.194m4.42-1.137c0-.569-.24-.984-.982-1.455l-.878-.571c-.413-.26-.618-.442-.618-.733,0-.49.334-.56.829-.56s1.069.05,1.383.078h.025c.089,0,.152-.046.152-.163v-.317a.181.181,0,0,0-.17-.2,7.718,7.718,0,0,0-1.391-.121c-.919,0-1.614.277-1.614,1.279a1.653,1.653,0,0,0,.909,1.381l.9.576c.508.326.67.514.67.8,0,.521-.3.686-.88.686a12.779,12.779,0,0,1-1.4-.109h-.038a.15.15,0,0,0-.159.146v.338c0,.1.072.165.188.192a6.272,6.272,0,0,0,1.412.147c.994,0,1.663-.418,1.663-1.4m7.19,1.078v-.392c0-.109-.045-.156-.138-.156h-.039c-.321.03-.964.076-1.47.076-.872,0-1.549-.565-1.549-2.188v-1.339c0-1.638.678-2.188,1.549-2.188.518,0,1.177.058,1.5.086h.025c.09,0,.107-.047.107-.1v-.493c0-.088-.062-.116-.142-.129a9.335,9.335,0,0,0-1.5-.151c-1.1,0-2.353.614-2.353,2.978v1.339c0,2.345,1.255,2.982,2.353,2.982a6.235,6.235,0,0,0,1.479-.13.186.186,0,0,0,.177-.191m4.725-2.033v-.733c0-1.417-.678-2.349-1.986-2.349s-1.981.932-1.981,2.349v.733c0,1.416.671,2.354,1.981,2.354s1.986-.938,1.986-2.354m-.786,0c0,.994-.372,1.609-1.2,1.609s-1.2-.625-1.2-1.609v-.733c0-.99.367-1.609,1.2-1.609s1.2.627,1.2,1.609Zm7.738,2.091v-3.413c0-1.338-.644-1.774-1.444-1.774a3.365,3.365,0,0,0-1.482.4,1.045,1.045,0,0,0-.889-.4,2.374,2.374,0,0,0-1.3.455v-.186a.178.178,0,0,0-.169-.191h-.445a.179.179,0,0,0-.171.191v4.917a.175.175,0,0,0,.151.194h.473a.179.179,0,0,0,.16-.194v-4.069a2.606,2.606,0,0,1,1.089-.377c.46,0,.687.177.687,1.013v3.433c0,.1.059.194.15.194h.472a.18.18,0,0,0,.159-.194v-3.433a3.214,3.214,0,0,0-.078-.751,2.939,2.939,0,0,1,1.042-.262c.461,0,.808.223.808,1.033v3.413a.19.19,0,0,0,.179.194h.427a.191.191,0,0,0,.182-.194m4.98-2.1v-.7c0-1.444-.614-2.377-1.941-2.377a6.981,6.981,0,0,0-1.641.217c-.159.04-.185.1-.185.225v6.631a.171.171,0,0,0,.157.183h.455a.178.178,0,0,0,.171-.183v-1.746a5.922,5.922,0,0,0,1.043.109c1.3,0,1.941-.85,1.941-2.363m-.783,0c0,1.031-.287,1.65-1.158,1.65a6.794,6.794,0,0,1-1.043-.1v-3.818a6.082,6.082,0,0,1,1.043-.1c.882,0,1.158.655,1.158,1.665Zm5.247,2.1v-3.364c0-1.139-.5-1.81-1.737-1.81a7.187,7.187,0,0,0-1.381.121c-.125.02-.187.08-.187.185v.338c0,.126.08.153.162.153h.045a12.386,12.386,0,0,1,1.361-.078c.7,0,.954.281.954,1.092v.384h-.66c-1.586,0-2.147.523-2.147,1.563v.118c0,1.2.693,1.561,1.449,1.561a2.544,2.544,0,0,0,1.373-.475v.213a.189.189,0,0,0,.181.194h.407a.188.188,0,0,0,.178-.194m-.782-.82a2.3,2.3,0,0,1-1.2.385c-.516,0-.821-.18-.821-.877v-.112c0-.688.287-.945,1.366-.945h.66Zm5.747.82v-3.171c0-1.285-.478-2-1.55-2a2.509,2.509,0,0,0-1.416.443v-.186a.18.18,0,0,0-.171-.191h-.445a.179.179,0,0,0-.171.191v4.917a.189.189,0,0,0,.171.194h.435a.2.2,0,0,0,.18-.194v-4.069a2.664,2.664,0,0,1,1.2-.377c.675,0,.979.3.979,1.275v3.171a.188.188,0,0,0,.178.194h.429a.189.189,0,0,0,.177-.194m2.112-6.15v-.774a.183.183,0,0,0-.177-.189h-.456a.184.184,0,0,0-.177.189v.774a.185.185,0,0,0,.177.191h.456a.184.184,0,0,0,.177-.191m-.02,6.15v-4.917a.184.184,0,0,0-.177-.191h-.426a.188.188,0,0,0-.18.191v4.917a.191.191,0,0,0,.18.194h.426a.188.188,0,0,0,.177-.194m5.127-2.091v-.733c0-1.417-.679-2.349-1.99-2.349s-1.976.932-1.976,2.349v.733c0,1.416.666,2.354,1.976,2.354s1.99-.938,1.99-2.354m-.786,0c0,.994-.372,1.609-1.2,1.609s-1.193-.625-1.193-1.609v-.733c0-.99.367-1.609,1.193-1.609s1.2.627,1.2,1.609Zm5.589,2.091v-3.171c0-1.285-.48-2-1.552-2a2.53,2.53,0,0,0-1.419.443v-.186a.176.176,0,0,0-.168-.191h-.445a.179.179,0,0,0-.169.191v4.917a.189.189,0,0,0,.169.194h.437a.193.193,0,0,0,.175-.194v-4.069a2.71,2.71,0,0,1,1.2-.377c.678,0,.979.3.979,1.275v3.171a.192.192,0,0,0,.182.194h.428a.189.189,0,0,0,.178-.194M249.9,257.4c0-.569-.24-.984-.98-1.455l-.882-.571c-.411-.26-.617-.442-.617-.733,0-.49.329-.56.831-.56s1.07.05,1.38.078h.027a.142.142,0,0,0,.153-.163v-.317a.182.182,0,0,0-.171-.2,7.707,7.707,0,0,0-1.39-.121c-.918,0-1.613.277-1.613,1.279a1.649,1.649,0,0,0,.908,1.381l.9.576c.505.326.67.514.67.8,0,.521-.3.686-.883.686a12.71,12.71,0,0,1-1.4-.109H246.8a.15.15,0,0,0-.162.146v.338c0,.1.071.165.188.192a6.228,6.228,0,0,0,1.406.147c1,0,1.667-.418,1.667-1.4m7.066-2.209v-.364a.192.192,0,0,0-.177-.2h-2.735V253.3c0-.73.151-1,1.1-1h1.719c.061,0,.1-.047.1-.117v-.48l-.089-.134c-.373-.038-1.212-.058-1.736-.058-1.248,0-1.9.51-1.9,1.791v5.245a.19.19,0,0,0,.179.194h.455a.189.189,0,0,0,.178-.194v-3.151h2.735a.19.19,0,0,0,.177-.2m4.9,1.254v-.733c0-1.417-.678-2.349-1.986-2.349s-1.979.932-1.979,2.349v.733c0,1.416.669,2.354,1.979,2.354s1.986-.938,1.986-2.354m-.783,0c0,.994-.377,1.609-1.2,1.609s-1.2-.625-1.2-1.609v-.733c0-.99.366-1.609,1.2-1.609s1.2.627,1.2,1.609Zm5.586,2.091v-4.917a.184.184,0,0,0-.169-.191h-.438a.193.193,0,0,0-.178.191v4.067a2.625,2.625,0,0,1-1.2.377c-.676,0-.98-.3-.98-1.272v-3.172a.185.185,0,0,0-.177-.191H263.1a.187.187,0,0,0-.178.191V256.8c0,1.283.48,2.007,1.55,2.007a2.529,2.529,0,0,0,1.416-.446v.184a.183.183,0,0,0,.173.194h.444a.182.182,0,0,0,.169-.194m4.966,0v-3.171c0-1.285-.484-2-1.552-2a2.514,2.514,0,0,0-1.417.443v-.186a.179.179,0,0,0-.17-.191h-.445a.18.18,0,0,0-.171.191v4.917a.189.189,0,0,0,.171.194h.437a.194.194,0,0,0,.177-.194v-4.069a2.671,2.671,0,0,1,1.2-.377c.679,0,.978.3.978,1.275v3.171a.192.192,0,0,0,.18.194h.426a.192.192,0,0,0,.183-.194m4.82-.126v-6.747a.172.172,0,0,0-.158-.185h-.458a.177.177,0,0,0-.169.185v1.793a6.131,6.131,0,0,0-1.042-.094c-1.3,0-1.945.848-1.945,2.36v.693c0,1.445.615,2.383,1.945,2.383a7.916,7.916,0,0,0,1.639-.166c.161-.027.188-.1.188-.222m-.786-.413c-.3.029-.741.057-1.042.057-.885,0-1.159-.587-1.159-1.638v-.693c0-1.034.283-1.619,1.159-1.619a6.4,6.4,0,0,1,1.042.067Zm5.408.539v-3.364c0-1.139-.5-1.81-1.737-1.81a7.183,7.183,0,0,0-1.38.121c-.126.02-.188.08-.188.185v.338c0,.126.082.153.16.153h.045a12.391,12.391,0,0,1,1.362-.078c.7,0,.956.281.956,1.092v.384h-.661c-1.585,0-2.149.523-2.149,1.563v.118c0,1.2.7,1.561,1.456,1.561a2.553,2.553,0,0,0,1.372-.475v.213a.188.188,0,0,0,.177.194h.409a.188.188,0,0,0,.177-.194m-.781-.82a2.3,2.3,0,0,1-1.2.385c-.519,0-.82-.18-.82-.877v-.112c0-.688.285-.945,1.363-.945h.661Zm4.6.868v-.338c0-.1-.063-.132-.188-.132h-.5c-.358,0-.481-.079-.481-.607v-3.365h.962a.19.19,0,0,0,.179-.2v-.328a.187.187,0,0,0-.179-.191h-.962v-1.053a.149.149,0,0,0-.136-.163h-.025l-.463.077a.191.191,0,0,0-.162.193v.946h-.862a.164.164,0,0,0-.173.171v.261a.169.169,0,0,0,.173.173l.862.109v3.365c0,1.057.393,1.291,1.21,1.291a3.931,3.931,0,0,0,.581-.049c.116-.019.16-.081.16-.165m1.728-6.2v-.774a.185.185,0,0,0-.178-.189H286a.183.183,0,0,0-.178.189v.774a.185.185,0,0,0,.178.191h.454a.186.186,0,0,0,.178-.191m-.016,6.15v-4.917a.188.188,0,0,0-.181-.191H286a.184.184,0,0,0-.177.191v4.917a.187.187,0,0,0,.177.194h.427a.191.191,0,0,0,.181-.194m5.122-2.091v-.733c0-1.417-.677-2.349-1.989-2.349s-1.975.932-1.975,2.349v.733c0,1.416.664,2.354,1.975,2.354s1.989-.938,1.989-2.354m-.784,0c0,.994-.376,1.609-1.205,1.609s-1.194-.625-1.194-1.609v-.733c0-.99.366-1.609,1.194-1.609s1.205.627,1.205,1.609Zm5.586,2.091v-3.171c0-1.285-.48-2-1.549-2a2.511,2.511,0,0,0-1.419.443v-.186a.177.177,0,0,0-.168-.191h-.446a.179.179,0,0,0-.17.191v4.917a.188.188,0,0,0,.17.194h.436a.193.193,0,0,0,.177-.194v-4.069a2.691,2.691,0,0,1,1.207-.377c.672,0,.978.3.978,1.275v3.171a.19.19,0,0,0,.179.194h.428a.188.188,0,0,0,.176-.194m5.98-6.611v-.32c0-.086-.072-.127-.168-.155a1.974,1.974,0,0,0-.5-.06c-.786,0-1.246.311-1.246,1.342v.7h-.87a.166.166,0,0,0-.168.171v.261a.173.173,0,0,0,.168.173l.87.109v4.393a.191.191,0,0,0,.174.194h.436a.193.193,0,0,0,.169-.194v-4.393h.937a.162.162,0,0,0,.171-.166V253.6a.167.167,0,0,0-.171-.171h-.937v-.7c0-.531.128-.663.545-.663h.43c.093,0,.158-.042.158-.145m4.633,4.519v-.733c0-1.417-.677-2.349-1.986-2.349s-1.98.932-1.98,2.349v.733c0,1.416.671,2.354,1.98,2.354s1.986-.938,1.986-2.354m-.784,0c0,.994-.373,1.609-1.2,1.609s-1.195-.625-1.195-1.609v-.733c0-.99.364-1.609,1.195-1.609s1.2.627,1.2,1.609Zm4.04-2.515v-.4c0-.116-.066-.17-.19-.17a2.007,2.007,0,0,0-1.258.46v-.2a.179.179,0,0,0-.17-.191h-.417a.18.18,0,0,0-.171.191v4.917a.187.187,0,0,0,.171.194h.437a.194.194,0,0,0,.177-.194V254.5a2.175,2.175,0,0,1,1.23-.408c.124,0,.19-.057.19-.16m7.2,4.51v-3.239a.186.186,0,0,0-.171-.191h-.482a.173.173,0,0,0-.162.191v2.758c-.209.017-.579.058-1.118.058-.833,0-1.5-.627-1.5-2.217v-1.294c0-1.736.747-2.216,1.575-2.216a15.888,15.888,0,0,1,1.693.068h.039c.075,0,.112-.029.112-.1v-.48c0-.1-.072-.135-.151-.144a9.26,9.26,0,0,0-1.693-.136c-1.141,0-2.389.666-2.389,3.006v1.294c0,2.2,1.195,3,2.311,3a9.205,9.205,0,0,0,1.771-.147.2.2,0,0,0,.162-.212m2.2-6.054v-.774a.182.182,0,0,0-.174-.189h-.458a.184.184,0,0,0-.177.189v.774a.185.185,0,0,0,.177.191h.458a.183.183,0,0,0,.174-.191m-.017,6.15v-4.917a.184.184,0,0,0-.177-.191h-.427a.185.185,0,0,0-.178.191v4.917a.189.189,0,0,0,.178.194h.427a.188.188,0,0,0,.177-.194m3.886-6.611v-.32c0-.086-.071-.127-.167-.155a1.974,1.974,0,0,0-.5-.06c-.787,0-1.251.311-1.251,1.342v.7h-.865a.166.166,0,0,0-.167.171v.261a.173.173,0,0,0,.167.173l.865.109v4.393a.2.2,0,0,0,.179.194h.438a.2.2,0,0,0,.171-.194v-4.393h.931a.161.161,0,0,0,.171-.166V253.6a.165.165,0,0,0-.171-.171h-.931v-.7c0-.531.121-.663.54-.663h.43c.1,0,.158-.042.158-.145m3.433,6.659v-.338c0-.1-.062-.132-.19-.132h-.5c-.358,0-.479-.079-.479-.607v-3.365h.96a.187.187,0,0,0,.18-.2v-.328a.185.185,0,0,0-.18-.191h-.96v-1.053a.149.149,0,0,0-.134-.163h-.026l-.462.077a.191.191,0,0,0-.162.193v.946h-.868a.161.161,0,0,0-.166.171v.261a.166.166,0,0,0,.166.173l.868.109v3.365c0,1.057.391,1.291,1.21,1.291a3.941,3.941,0,0,0,.579-.049c.114-.019.163-.081.163-.165m4.605-2.451v-.519c0-1.368-.658-2.252-1.961-2.252-1.272,0-1.978.875-1.978,2.252v.87c0,1.789,1,2.314,2.026,2.314a7.48,7.48,0,0,0,1.593-.166c.143-.027.178-.1.178-.222v-.325a.132.132,0,0,0-.145-.136h-.044a11.181,11.181,0,0,1-1.583.1c-.822,0-1.241-.423-1.241-1.569v-.138h2.984c.108,0,.17-.088.17-.213m-.791-.431h-2.363v-.088c0-1.039.427-1.511,1.193-1.511.785,0,1.17.422,1.17,1.511Zm5.468,2.708v-6.747a.169.169,0,0,0-.158-.185h-.452a.178.178,0,0,0-.17.185v1.793a6.208,6.208,0,0,0-1.044-.094c-1.3,0-1.944.848-1.944,2.36v.693c0,1.445.616,2.383,1.944,2.383a7.933,7.933,0,0,0,1.64-.166c.159-.027.184-.1.184-.222m-.78-.413c-.306.029-.741.057-1.044.057-.884,0-1.158-.587-1.158-1.638v-.693c0-1.034.283-1.619,1.158-1.619a6.425,6.425,0,0,1,1.044.067Zm5.748.539v-3.171c0-1.285-.48-2-1.551-2a2.508,2.508,0,0,0-1.418.443v-.186a.179.179,0,0,0-.17-.191h-.447a.178.178,0,0,0-.169.191v4.917a.189.189,0,0,0,.169.194h.437a.2.2,0,0,0,.179-.194v-4.069a2.671,2.671,0,0,1,1.2-.377c.679,0,.98.3.98,1.275v3.171a.19.19,0,0,0,.179.194h.427a.189.189,0,0,0,.179-.194m4.987-2.4v-.519c0-1.368-.66-2.252-1.96-2.252-1.275,0-1.978.875-1.978,2.252v.87c0,1.789,1,2.314,2.021,2.314a7.516,7.516,0,0,0,1.6-.166c.142-.027.177-.1.177-.222v-.325a.13.13,0,0,0-.141-.136h-.045a11.245,11.245,0,0,1-1.59.1c-.818,0-1.234-.423-1.234-1.569v-.138h2.984c.106,0,.168-.088.168-.213m-.792-.431h-2.36v-.088c0-1.039.426-1.511,1.191-1.511.785,0,1.168.422,1.168,1.511Zm4.964,1.7c0-.569-.242-.984-.98-1.455l-.882-.571c-.41-.26-.617-.442-.617-.733,0-.49.332-.56.832-.56s1.068.05,1.377.078h.027c.089,0,.152-.046.152-.163v-.317a.181.181,0,0,0-.169-.2,7.691,7.691,0,0,0-1.388-.121c-.919,0-1.615.277-1.615,1.279a1.646,1.646,0,0,0,.909,1.381l.9.576c.51.326.667.514.667.8,0,.521-.3.686-.88.686a12.763,12.763,0,0,1-1.4-.109h-.035a.15.15,0,0,0-.16.146v.338c0,.1.071.165.186.192a6.257,6.257,0,0,0,1.411.147c1,0,1.666-.418,1.666-1.4m4.154,0c0-.569-.24-.984-.983-1.455l-.881-.571c-.409-.26-.616-.442-.616-.733,0-.49.328-.56.83-.56s1.068.05,1.38.078h.029c.087,0,.149-.046.149-.163v-.317a.181.181,0,0,0-.169-.2,7.7,7.7,0,0,0-1.39-.121c-.919,0-1.615.277-1.615,1.279a1.649,1.649,0,0,0,.91,1.381l.9.576c.507.326.669.514.669.8,0,.521-.305.686-.883.686a12.786,12.786,0,0,1-1.4-.109h-.039a.15.15,0,0,0-.159.146v.338c0,.1.071.165.189.192A6.26,6.26,0,0,0,353,258.8c1,0,1.669-.418,1.669-1.4m8.358,1.225-.046-.106-.794-.916a4.19,4.19,0,0,0,.564-2.217v-.136a.136.136,0,0,0-.151-.154h-.384c-.1,0-.146.049-.146.154v.136a3.686,3.686,0,0,1-.346,1.694l-1.612-1.878.25-.182c1.124-.82,1.362-1.265,1.362-1.911v-.076c0-1.023-.783-1.532-1.771-1.532-1.154,0-1.872.51-1.872,1.532v.076c0,.425.089.831.927,1.872l.063.077c-.9.617-1.288,1.1-1.288,1.9v.078c0,1.312,1.1,1.766,2.184,1.766a2.506,2.506,0,0,0,1.758-.658l.446.52a.165.165,0,0,0,.141.069h.618a.1.1,0,0,0,.1-.106m-2.041-5.517c0,.532-.162.774-1.026,1.35l-.3.2-.089-.106c-.714-.849-.759-1.11-.759-1.448v-.076c0-.666.47-.887,1.145-.887.613,0,1.033.252,1.033.887Zm.31,4.532a1.872,1.872,0,0,1-1.33.491c-.722,0-1.36-.316-1.36-1.1v-.078c0-.587.2-.887.916-1.368Zm8.8.838v-.392c0-.109-.043-.156-.138-.156h-.04c-.318.03-.961.076-1.467.076-.875,0-1.555-.565-1.555-2.188v-1.339c0-1.638.681-2.188,1.555-2.188.516,0,1.174.058,1.495.086h.025c.089,0,.107-.047.107-.1v-.493c0-.088-.061-.116-.138-.129a9.386,9.386,0,0,0-1.5-.151c-1.1,0-2.354.614-2.354,2.978v1.339c0,2.345,1.258,2.982,2.354,2.982a6.22,6.22,0,0,0,1.477-.13.187.187,0,0,0,.178-.191m3.118-4.548v-.4c0-.116-.062-.17-.186-.17a2.012,2.012,0,0,0-1.259.46v-.2a.178.178,0,0,0-.168-.191h-.419a.179.179,0,0,0-.169.191v4.917a.189.189,0,0,0,.169.194h.437a.2.2,0,0,0,.18-.194V254.5a2.166,2.166,0,0,1,1.228-.408c.124,0,.186-.057.186-.16m4.626,2.2v-.519c0-1.368-.658-2.252-1.959-2.252-1.274,0-1.98.875-1.98,2.252v.87c0,1.789,1,2.314,2.023,2.314a7.486,7.486,0,0,0,1.6-.166.19.19,0,0,0,.179-.222v-.325a.131.131,0,0,0-.143-.136h-.046a11.217,11.217,0,0,1-1.586.1c-.821,0-1.237-.423-1.237-1.569v-.138h2.984c.108,0,.169-.088.169-.213m-.793-.431h-2.36v-.088c0-1.039.426-1.511,1.194-1.511s1.166.422,1.166,1.511Zm5.275,2.834v-3.364c0-1.139-.5-1.81-1.737-1.81a7.2,7.2,0,0,0-1.381.121c-.127.02-.189.08-.189.185v.338c0,.126.08.153.16.153h.046a12.429,12.429,0,0,1,1.363-.078c.692,0,.953.281.953,1.092v.384h-.661c-1.587,0-2.146.523-2.146,1.563v.118c0,1.2.7,1.561,1.449,1.561a2.563,2.563,0,0,0,1.375-.475v.213a.189.189,0,0,0,.179.194h.409a.189.189,0,0,0,.177-.194m-.783-.82a2.288,2.288,0,0,1-1.2.385c-.519,0-.822-.18-.822-.877v-.112c0-.688.287-.945,1.365-.945h.661Zm4.6.868v-.338c0-.1-.062-.132-.189-.132h-.5c-.359,0-.482-.079-.482-.607v-3.365h.963a.187.187,0,0,0,.177-.2v-.328a.184.184,0,0,0-.177-.191h-.963v-1.053a.15.15,0,0,0-.134-.163h-.029l-.462.077a.2.2,0,0,0-.161.193v.946h-.863a.161.161,0,0,0-.169.171v.261a.167.167,0,0,0,.169.173l.863.109v3.365c0,1.057.394,1.291,1.215,1.291a3.867,3.867,0,0,0,.578-.049c.118-.019.163-.081.163-.165m1.727-6.2v-.774a.184.184,0,0,0-.18-.189h-.451a.186.186,0,0,0-.182.189v.774a.187.187,0,0,0,.182.191h.451a.185.185,0,0,0,.18-.191m-.017,6.15v-4.917a.188.188,0,0,0-.179-.191h-.427a.188.188,0,0,0-.179.191v4.917a.192.192,0,0,0,.179.194h.427a.192.192,0,0,0,.179-.194m5.087-4.944c0-.1-.051-.164-.143-.164h-.491c-.071,0-.134.055-.166.18l-1.027,4.206c-.056.228-.107.28-.189.28s-.134-.052-.187-.28l-1.026-4.206c-.033-.126-.094-.18-.166-.18h-.492a.144.144,0,0,0-.144.164l.012.067,1.2,4.588a.856.856,0,0,0,1.6,0l1.2-4.588Zm1.857-1.206v-.774a.187.187,0,0,0-.182-.189h-.453a.185.185,0,0,0-.18.189v.774a.186.186,0,0,0,.18.191h.453a.189.189,0,0,0,.182-.191m-.021,6.15v-4.917a.185.185,0,0,0-.179-.191h-.427a.187.187,0,0,0-.179.191v4.917a.191.191,0,0,0,.179.194h.427a.188.188,0,0,0,.179-.194m3.924.048v-.338c0-.1-.066-.132-.189-.132h-.5c-.355,0-.482-.079-.482-.607v-3.365h.968a.191.191,0,0,0,.177-.2v-.328a.189.189,0,0,0-.177-.191h-.968v-1.053a.148.148,0,0,0-.133-.163h-.026l-.463.077a.191.191,0,0,0-.159.193v.946h-.866a.163.163,0,0,0-.17.171v.261a.168.168,0,0,0,.17.173l.866.109v3.365c0,1.057.391,1.291,1.208,1.291a3.9,3.9,0,0,0,.581-.049c.117-.019.165-.081.165-.165m4.63-4.992c0-.1-.051-.164-.142-.164h-.5a.183.183,0,0,0-.166.143l-1.089,4.405h-.143c-.063,0-.125-.017-.171-.212l-1.047-4.185c-.021-.077-.084-.151-.156-.151h-.49a.148.148,0,0,0-.159.164l.007.067,1.187,4.4c.159.6.391.667.658.667h.126l-.087.393c-.152.675-.377.821-.882.821-.2,0-.6-.04-.8-.06h-.024c-.1,0-.171.047-.171.154v.357c0,.1.08.129.185.156a3.461,3.461,0,0,0,.752.087c1.024,0,1.354-.386,1.631-1.428l1.468-5.551Z" transform="translate(0 3.162)"/><path class="i" d="M401.518,241.691c-.42-.038-2.185-.159-2.185-.86,0-.443.7-.883,1.1-.883.844,0,1.023,1.143,1.083,1.743m1.766.362c0-1.442-1.064-3.909-2.768-3.909-1.265,0-1.865,1.224-2.366,2.186-.82,1.6-1.367,1.723-2.2,1.723v1.966c.78.019,1.283.082,2.305-1.324.962,1.142,3.63,1.123,5.033,1.324Zm-9.886,0h-2.305c.038-.722.183-2.046,1.121-2.046.864,0,1.061,1.425,1.184,2.046m3.089,0H395.16c-.179-1.4-.959-3.869-2.766-3.869-1.981,0-2.767,2.585-2.767,4.191,0,1.785,1.666,1.644,3.671,1.644-.22,1.624-1.725,2.425-3.185,2.767a6.065,6.065,0,0,0,1.982.323,2.93,2.93,0,0,0,3.168-3.09h1.223Zm-2.947-7.839v-.843a1.452,1.452,0,0,1-.923.422c-.179,0-.323-.081-.323-.26,0-.341.561-.541.843-.541l.042.02c-.08-.2-.161-.383-.22-.582h-.282c-.662,0-1.082.742-1.082,1.3a.6.6,0,0,0,.421.58l-.3.143a4.581,4.581,0,0,0,.1.719,14.7,14.7,0,0,1,1.726-.961m-5.674,7.938c0-1.763-.863-3.028-1.865-4.43l-1.064,1.847a8.808,8.808,0,0,1,1.143,2.485h-1.685c-.421,0-1.6-3.95-1.763-4.332l-.945,1.945c.083.282.564,1.805.564,1.926,0,.621-1.043.462-1.405.462v1.966h1.967a5.239,5.239,0,0,0,.3-1.065c.06.4.5,1.065.943,1.065h3.452a5.046,5.046,0,0,0,.359-1.867m-6.5,1.867v-1.966h-.861c-.46,0-1.624-3.93-1.806-4.332l-.941,1.945c.1.262.579,1.826.579,1.926,0,.621-1.6.462-1.924.462v1.966H378.9a4.076,4.076,0,0,0,.277-1.065c.062.4.523,1.065.963,1.065Zm-4.792,0v-1.966h-1.323c-.459,0-1.623-3.93-1.8-4.332l-.922,1.945c.078.282.558,1.805.558,1.926,0,.643-1.621.462-1.944.462-.459,0-1.623-3.93-1.786-4.332l-.941,1.945c.081.282.562,1.826.562,1.926,0,.621-1.506.462-1.325.462v1.966h1.888a5.311,5.311,0,0,0,.3-1.065c.058.4.5,1.065.94,1.065h2.87a4.915,4.915,0,0,0,.3-1.065c.04.4.5,1.065.943,1.065Zm-8.482,0v-1.966h-.86c-.464,0-1.625-3.93-1.807-4.332l-.943,1.945c.1.262.582,1.826.582,1.926,0,.621-1.6.462-1.924.462v1.966h2.484a4.045,4.045,0,0,0,.282-1.065c.06.4.522,1.065.963,1.065Zm-7.819-1.966h-2.307c.041-.722.182-2.046,1.124-2.046.863,0,1.061,1.425,1.183,2.046m3.307,1.966v-1.966h-1.6c-.2-1.4-.885-3.869-2.709-3.869-1.985,0-2.77,2.585-2.77,4.17,0,.38.2,1.664.785,1.664Zm-2.045-8.422-1.164-1.163-1.118,1.121-1.047-1.022-1.163,1.164,1.163,1.162,1.143-1.121,1.022,1.022Zm-9.722,8.422V233.15l-1.707,1.986v8.883Zm-9.185-2.125c-.483-.122-2.286-.423-2.286-1.062,0-.423.619-.843,1.019-.843.926,0,1.188,1.182,1.267,1.906m5.693-8.744-1.684,1.986v6.917h-2.346c-.221-1.464-.9-3.909-2.745-3.909-2.488,0-1.967,3.909-4.691,3.909v1.966a2.449,2.449,0,0,0,2.423-1.244c1.024,1.024,2.867,1.244,4.253,1.244h4.791Zm-10.867,8.9h-1.343v-8.883l-1.7,1.965v6.917h-1.347v1.966h4.394Zm-4.228,1.966v-1.966h-1.31v-8.883l-1.7,1.984v6.92h-6.877a3.913,3.913,0,0,1,.723-1.907l-1.024-1.443a5.958,5.958,0,0,0-1.4,3.35v1.943Zm-4.856-6.1-1.583.442a2.456,2.456,0,0,1-.062-.542c0-.3.062-.6.44-.6.2,0,.342.2.445.36l.438-.8a1.314,1.314,0,0,0-.923-.48c-.74,0-1.122.842-1.122,1.464a3.534,3.534,0,0,0,.079.8l-.459.143-.1,1.04,2.689-.761Zm-11.448,4.13c-1.422,0-4.912.561-5.433-1.585a2.43,2.43,0,0,1,2.327-1.543,5.038,5.038,0,0,1,2.2.581c-.52-1.082-1.447-2.406-2.808-2.406-2.087,0-3.311,2.788-3.227,4.553l.018.4h-1.883v1.966h8.2Zm-9.665,3.89-1.164-1.184-1.162,1.184,1.162,1.165Zm1.541-1.925v-1.966h-.959c-.462,0-1.621-3.93-1.807-4.332l-.941,1.945c.1.282.582,1.805.582,1.926,0,.621-1.6.462-1.925.462v1.966h2.487a4.038,4.038,0,0,0,.28-1.065c.06.4.518,1.065.963,1.065Zm-4.529-1.966h-1.684v-.041c0-1.04-1.963-4.33-3.268-4.33a.673.673,0,0,0-.322.08l-1.24,2.106a.966.966,0,0,1,.759-.4c.983,0,2.225,1.784,2.65,2.586h-4.233v1.966h7.338Zm-9.083,1.966V233.15l-1.707,1.986v8.883Zm-3.488,0V233.15L290,235.136v6.917h-1.584v1.966Zm-6.519-4.272c-.46.662-.94,1.324-1.461,1.965-.522-.642-.983-1.3-1.445-1.965Zm3.611,4.272v-1.966h-3.208a12.032,12.032,0,0,1,1.926-2.327l-.821-1.942h-5.916l-.844,1.942a11.222,11.222,0,0,1,1.927,2.327h-3.588v1.966Zm-9.787,0v-1.966h-1.6a14.244,14.244,0,0,0-1.663-3.068l-1.083,1.846a6.518,6.518,0,0,1,1.183,2.807c0,1.845-1.625,2.785-3.228,3.148a6.689,6.689,0,0,0,1.988.28c1.981,0,3.167-.983,3.126-3.047Zm-2-8.422-1.18-1.163-1.166,1.163,1.166,1.182Zm-4.652,10.347-1.183-1.162-1.123,1.122-1.06-1.122-1.184,1.182,1.184,1.16,1.121-1.12,1.062,1.105Zm-.641-3.77a7.418,7.418,0,0,0-1.843-4.429l-1.086,1.843a8.554,8.554,0,0,1,1.142,2.466h-2.548v1.966h3.971a4.794,4.794,0,0,0,.363-1.845m-3.851,1.845v-1.966h-1.6a14.29,14.29,0,0,0-1.662-3.068l-1.083,1.846a6.543,6.543,0,0,1,1.183,2.807c0,1.845-1.625,2.785-3.228,3.148a6.678,6.678,0,0,0,1.984.28c1.983,0,3.169-.983,3.129-3.047Zm-2-8.422-1.183-1.163L263.51,235.6l1.162,1.182Zm-10.108,6.457h-2.3c.037-.722.18-2.046,1.123-2.046.862,0,1.062,1.425,1.181,2.046m1.885,1.585c0-1.724-.478-5.454-2.887-5.454-1.982,0-2.766,2.585-2.766,4.17,0,1.806,1.666,1.664,3.672,1.664-.222,1.624-1.724,2.425-3.192,2.767a6.205,6.205,0,0,0,1.99.323c2.2,0,3.183-1.326,3.183-3.471m-7.437.479c0-2.042-.9-3.469-1.985-5.132l-1.085,1.846a6.607,6.607,0,0,1,1.183,2.807c0,1.845-1.623,2.785-3.225,3.148a6.723,6.723,0,0,0,1.986.3c1.946,0,3.126-.943,3.126-2.968m-9.262,1.805-1.163-1.163-1.183,1.163,1.183,1.163Zm3.268-3.847c-1.465-.905-4.012-4.354-5.455-4.354-.8,0-1.564,1.123-1.564,1.847,0,.08.02.157.119.157.121,0,.323-.259.644-.259.739,0,2.566,2.025,3.089,2.586h-5.011v1.966h7.036Zm-7.719,1.943v-1.966H234.8v-8.9l-1.708,1.986v8.883Zm-5.173,0V233.15l-1.708,1.986v6.917H228.02v1.966Zm-5.937-1.966h-2.305c.04-.722.18-2.046,1.123-2.046.863,0,1.062,1.425,1.182,2.046m3.309,1.966v-1.966h-1.6c-.2-1.4-.882-3.869-2.726-3.869-1.967,0-2.747,2.585-2.747,4.17,0,.38.2,1.664.78,1.664Zm-11.809,0V233.15l-1.7,1.986v6.917h-1.587v1.966Zm-2.906-1.966H212.62v-8.883l-1.7,1.965v6.917h-1.341v1.966h4.39Zm-7.218-.159c-.423-.122-2.287-.4-2.287-1.062,0-.423.642-.843,1.023-.843.941,0,1.181,1.182,1.265,1.906m2.945,2.125v-1.966h-1.281c-.182-1.423-.905-3.909-2.746-3.909-1.164,0-1.989,1.2-2.366,2.186-.585,1.022-1.066,1.723-2.326,1.723v1.966a2.417,2.417,0,0,0,2.424-1.244,6.347,6.347,0,0,0,4.17,1.244Zm-11.187-1.966H196.2c.042-.722.182-2.046,1.124-2.046.863,0,1.065,1.425,1.184,2.046m3.087,0h-1.324c-.18-1.4-.961-3.869-2.766-3.869-1.984,0-2.767,2.585-2.767,4.191,0,1.785,1.665,1.644,3.668,1.644-.219,1.624-1.723,2.425-3.187,2.767a6.094,6.094,0,0,0,1.983.323,2.929,2.929,0,0,0,3.171-3.09h1.222Zm-13.314,0h-1c-.444,0-1.322-.422-1.322-.942a1.259,1.259,0,0,1,.982-1.086c.982,0,1.264,1.285,1.342,2.027m3.248,0h-1.543a7.109,7.109,0,0,0-.9-2.708,7.537,7.537,0,0,1,2.446,2.708m1.4-.139a7.7,7.7,0,0,0-1.024-2.227,9.942,9.942,0,0,0-5.214-3.73l-1.062,2.126a.441.441,0,0,1,.384-.139,2.674,2.674,0,0,1,1.023.26c-1.725.22-2.509,2.323-2.389,3.849h-1.725v1.966h10.008Zm-11.008,4.03-1.161-1.184-1.165,1.184,1.165,1.165Zm1.546-1.925v-1.966H182.5c-.465,0-1.625-3.93-1.806-4.332l-.944,1.945c.1.282.585,1.805.585,1.926,0,.621-1.6.462-1.927.462v1.966H180.9a4,4,0,0,0,.282-1.065c.06.4.519,1.065.963,1.065Zm-7.922-1.966H173.24c.041-.722.181-2.046,1.121-2.046.863,0,1.065,1.425,1.185,2.046m3.309,1.966v-1.966h-1.6c-.2-1.4-.885-3.869-2.708-3.869-1.985,0-2.768,2.585-2.768,4.17,0,.38.2,1.664.782,1.664Zm-2.045-8.422-1.162-1.163-1.125,1.121-1.042-1.022-1.163,1.164,1.163,1.162,1.143-1.121,1.024,1.022Zm-11.633,6.457h-2.3c.043-.722.181-2.046,1.124-2.046.861,0,1.061,1.425,1.18,2.046m1.885,1.585c0-1.724-.48-5.454-2.884-5.454-1.988,0-2.767,2.585-2.767,4.17,0,1.806,1.663,1.664,3.669,1.664-.221,1.624-1.725,2.425-3.191,2.767a6.188,6.188,0,0,0,1.988.323c2.206,0,3.185-1.326,3.185-3.471m-7.4.381V233.15l-1.7,1.986v8.883Zm-5.214-1.966h-2.665c.461-.66.942-1.324,1.444-1.945a6.445,6.445,0,0,1,1.221,1.945m1.747,1.966c-.023-2.625-.1-3.249-1.885-5.374a5.135,5.135,0,0,0,.581-2.166V233.13l-1.744,2.006.019,1.283a2.258,2.258,0,0,1-.24.942,50.031,50.031,0,0,0-4.11-3.849c-.021.824-.062,1.663-.062,2.488,0,.5.8,1.08,1.166,1.4l.178-.46,1.906,1.922-2.546,3.189v1.966Zm-2.789,4.712v-.8a1.5,1.5,0,0,1-.88.4c-.18,0-.3-.079-.3-.259,0-.321.52-.5.783-.5l.04.021a4.511,4.511,0,0,1-.2-.563h-.259a1.2,1.2,0,0,0-1.045,1.244.6.6,0,0,0,.4.562l-.282.137a3.823,3.823,0,0,0,.1.665,12.645,12.645,0,0,1,1.642-.9m-7.438-2.809-1.184-1.163-1.162,1.163,1.162,1.163Zm1-3.749a7.4,7.4,0,0,0-1.842-4.429l-1.081,1.843a8.369,8.369,0,0,1,1.141,2.466h-2.549v1.966h3.972a4.829,4.829,0,0,0,.359-1.845m-3.749-.121H141.54v-.041c0-1.04-1.967-4.33-3.267-4.33a.664.664,0,0,0-.321.08l-1.245,2.106a.971.971,0,0,1,.764-.4c.984,0,2.226,1.784,2.645,2.586h-4.229v1.966h7.337Zm-9.082,1.966V233.15l-1.7,1.986v8.883Zm-3.488-1.986c-1.444,0-4.913.562-5.434-1.583a2.439,2.439,0,0,1,2.325-1.524,5.032,5.032,0,0,1,2.206.559c-.52-1.08-1.442-2.4-2.807-2.4-2.086,0-3.309,2.809-3.228,4.574l.02.379h-1.563V244c0,2.647.4,4.47,3.047,5.355l2.2-1.485c-1.825-.22-4.068-1.264-3.93-3.369l.019-.48h6.537Z" transform="translate(0.004 2.236)"/></g></svg>