<svg id="event-24px" xmlns="http://www.w3.org/2000/svg" width="31.283" height="31.283" viewBox="0 0 31.283 31.283">
  <path id="Path_2518" data-name="Path 2518" d="M0,0H31.283V31.283H0Z" fill="none"/>
  <path id="Path_2519" data-name="Path 2519" d="M21.249,15.338H14.731v6.517h6.517ZM19.945,1V3.607H9.517V1H6.91V3.607h-1.3A2.6,2.6,0,0,0,3.013,6.214L3,24.462a2.606,2.606,0,0,0,2.607,2.607H23.855a2.615,2.615,0,0,0,2.607-2.607V6.214a2.615,2.615,0,0,0-2.607-2.607h-1.3V1Zm3.91,23.462H5.607V10.124H23.855Z" transform="translate(0.91 0.303)"/>
</svg>
