<svg id="Group_2989" data-name="Group 2989" xmlns="http://www.w3.org/2000/svg" width="24" height="24" viewBox="0 0 24 24">
  <path id="Path_2547" data-name="Path 2547" d="M0,0H24V24H0Z" fill="none"/>
  <path id="Path_2548" data-name="Path 2548" d="M18,8a3,3,0,0,1,0,6" fill="none" stroke="#000" stroke-linecap="round" stroke-linejoin="round" stroke-width="1.5"/>
  <path id="Path_2549" data-name="Path 2549" d="M10,8V19a1,1,0,0,1-1,1H8a1,1,0,0,1-1-1V14" fill="none" stroke="#000" stroke-linecap="round" stroke-linejoin="round" stroke-width="1.5"/>
  <path id="Path_2550" data-name="Path 2550" d="M12,8h0l4.524-3.77A.9.9,0,0,1,18,4.922V17.078a.9.9,0,0,1-1.476.692L12,14H4a1,1,0,0,1-1-1V9A1,1,0,0,1,4,8h8" fill="none" stroke="#000" stroke-linecap="round" stroke-linejoin="round" stroke-width="1.5"/>
</svg>
