<svg id="Group_1124" data-name="Group 1124" xmlns="http://www.w3.org/2000/svg" width="48.502" height="48.502" viewBox="0 0 48.502 48.502">
  <path id="Path_2167" data-name="Path 2167" d="M0,0H48.5V48.5H0Z" fill="none"/>
  <path id="Path_2168" data-name="Path 2168" d="M14,3v8.084A2.021,2.021,0,0,0,16.021,13.1H24.1" transform="translate(14.293 3.063)" fill="none" stroke="#38b349" stroke-linecap="round" stroke-linejoin="round" stroke-width="3"/>
  <path id="Path_2169" data-name="Path 2169" d="M5,13.1V7.042A4.042,4.042,0,0,1,9.042,3H23.188l10.1,10.1v22.23a4.042,4.042,0,0,1-4.042,4.042h-10.1" transform="translate(5.105 3.063)" fill="none" stroke="#38b349" stroke-linecap="round" stroke-linejoin="round" stroke-width="3"/>
  <circle id="Ellipse_91" data-name="Ellipse 91" cx="6" cy="6" r="6" transform="translate(6.251 22.251)" fill="none" stroke="#38b349" stroke-linecap="round" stroke-linejoin="round" stroke-width="3"/>
  <path id="Path_2170" data-name="Path 2170" d="M6.031,17,3,27.1l6.063-3.031L15.126,27.1,12.094,17" transform="translate(3.063 17.356)" fill="none" stroke="#38b349" stroke-linecap="round" stroke-linejoin="round" stroke-width="3"/>
</svg>
