<svg xmlns="http://www.w3.org/2000/svg" width="56" height="56" viewBox="0 0 56 56">
  <g id="Group_1117" data-name="Group 1117" transform="translate(0 0.149)">
    <g id="Ellipse_89" data-name="Ellipse 89" transform="translate(0 -0.149)" fill="#359344" stroke="#fff" stroke-width="5">
      <circle cx="28" cy="28" r="28" stroke="none"/>
      <circle cx="28" cy="28" r="25.5" fill="none"/>
    </g>
    <g id="check_circle_outline-24px" transform="translate(6.026 6.145)">
      <path id="Path_2160" data-name="Path 2160" d="M0,0H44.622V44.622H0ZM0,0H44.622V44.622H0Z" fill="none"/>
      <path id="Path_2161" data-name="Path 2161" d="M29.126,12.375,16.874,24.627,10.2,17.971,7.578,20.592l9.3,9.3L31.748,15.015ZM20.592,2A18.592,18.592,0,1,0,39.185,20.592,18.6,18.6,0,0,0,20.592,2Zm0,33.466A14.874,14.874,0,1,1,35.466,20.592,14.87,14.87,0,0,1,20.592,35.466Z" transform="translate(1.718 1.718)" fill="#fff"/>
    </g>
  </g>
</svg>
