<svg xmlns="http://www.w3.org/2000/svg" width="1322.495" height="838.242" viewBox="0 0 1322.495 838.242">
  <g id="Group_2477" data-name="Group 2477" transform="translate(0)">
    <path id="Shape" d="M244.185,244.212A244.212,244.212,0,0,0,225.6,150.756a244.23,244.23,0,0,0-52.934-79.228A244.2,244.2,0,0,0,93.445,18.589,244.157,244.157,0,0,0,0,0V244.212Z" transform="translate(596.303 95.722)" fill="#09f"/>
    <path id="Shape-2" data-name="Shape" d="M0,272.98A272.956,272.956,0,0,1,272.95,0V272.98Z" transform="translate(747.828)" fill="#aeadef"/>
    <path id="Shape-3" data-name="Shape" d="M0,544.485a273.529,273.529,0,0,0,104.453-20.723A273.035,273.035,0,0,0,193,464.745a272.233,272.233,0,0,0,59.17-88.321,271.587,271.587,0,0,0,0-208.363A272.235,272.235,0,0,0,193,79.74a273.037,273.037,0,0,0-88.55-59.017A273.53,273.53,0,0,0,0,0V544.485Z" transform="translate(1049.545)" fill="#ffda55"/>
    <ellipse id="Shape-4" data-name="Shape" cx="87.48" cy="87.49" rx="87.48" ry="87.49" transform="translate(830.804 355.926)" fill="#f9a439"/>
    <path id="Shape-5" data-name="Shape" d="M487.051,0a244.78,244.78,0,0,1-18.537,93.455,244.3,244.3,0,0,1-52.791,79.227,243.516,243.516,0,0,1-79,52.94,242.889,242.889,0,0,1-186.384,0,243.516,243.516,0,0,1-79-52.94A244.294,244.294,0,0,1,18.537,93.455,244.779,244.779,0,0,1,0,0Z" transform="translate(0 594.03)" fill="#ffd726"/>
    <path id="Shape-6" data-name="Shape" d="M244.185,0V244.212H0A244.192,244.192,0,0,1,244.185,0Z" transform="translate(243.525 370.931)" fill="#38b349"/>
    <path id="Shape-7" data-name="Shape" d="M0,0H297.9V297.934a297.864,297.864,0,0,1-114-22.679,297.912,297.912,0,0,1-96.645-64.584,297.956,297.956,0,0,1-64.579-96.656A297.934,297.934,0,0,1,0,0Z" transform="translate(46.933 296.324)" fill="#e6e6e6"/>
    <path id="Shape-8" data-name="Shape" d="M190.535,95.278A95.273,95.273,0,0,0,95.267,0H0V190.556H95.267A95.273,95.273,0,0,0,190.535,95.278Z" transform="translate(423.036 392.668)" fill="#38b349"/>
    <path id="Shape-9" data-name="Shape" d="M118.355,0A118.368,118.368,0,1,1,0,118.368,118.362,118.362,0,0,1,118.355,0Z" transform="translate(108.124 1.611)" fill="#ffd726"/>
  </g>
</svg>
