<svg xmlns="http://www.w3.org/2000/svg" width="21.406" height="22" viewBox="0 0 21.406 22"><defs><style>.a{fill:#f9a439;}</style></defs><path class="a" d="M10.7,0A10.489,10.489,0,0,0,3.135,3.222a11.217,11.217,0,0,0,0,15.556,10.5,10.5,0,0,0,15.136,0,11.217,11.217,0,0,0,0-15.556A10.489,10.489,0,0,0,10.7,0Zm-6,7.876h0A6.508,6.508,0,0,1,6.941,4.615a6.144,6.144,0,0,1,7.523,0A6.512,6.512,0,0,1,16.7,7.876H4.7ZM15.081,15.5A1.5,1.5,0,1,1,16.54,14,1.482,1.482,0,0,1,15.081,15.5Zm-8.757,0A1.5,1.5,0,1,1,7.784,14,1.482,1.482,0,0,1,6.324,15.5Z" transform="translate(21.406 22) rotate(180)"/></svg>